<?xml version="1.0" encoding="UTF-8"?>
<svg id="Layer_2" data-name="Layer 2" xmlns="http://www.w3.org/2000/svg" xmlns:xlink="http://www.w3.org/1999/xlink" viewBox="0 0 617.63 238.55">
  <defs>
    <style>
      .cls-1 {
        fill: none;
      }

      .cls-2 {
        fill: #f6f5fc;
      }

      .cls-3 {
        fill: url(#linear-gradient-5);
      }

      .cls-4 {
        fill: url(#linear-gradient-4);
      }

      .cls-5 {
        fill: url(#linear-gradient-3);
      }

      .cls-6 {
        fill: #5070fd;
      }

      .cls-7 {
        fill: url(#linear-gradient);
        opacity: .6;
      }

      .cls-8 {
        fill: url(#linear-gradient-2);
        opacity: .8;
      }

      .cls-9 {
        fill: #be1e2d;
      }

      .cls-10 {
        fill: #912320;
      }

      .cls-11 {
        fill: #f05a28;
      }

      .cls-12 {
        fill: #9e3d22;
      }

      .cls-13 {
        fill: #d65127;
      }

      .cls-14 {
        fill: #0c1c36;
      }

      .cls-15 {
        fill: #9d356c;
      }

      .cls-16 {
        fill: #ad1f29;
      }
    </style>
    <linearGradient id="linear-gradient" x1="79.28" y1="161.7" x2="538.35" y2="161.7" gradientUnits="userSpaceOnUse">
      <stop offset="0" stop-color="#ff684d"/>
      <stop offset=".11" stop-color="#ff5c51"/>
      <stop offset=".22" stop-color="#ff5154"/>
      <stop offset=".33" stop-color="#ff4857"/>
      <stop offset=".44" stop-color="#ff405b"/>
      <stop offset=".56" stop-color="#ff3a5e"/>
      <stop offset=".67" stop-color="#fb3662"/>
      <stop offset=".78" stop-color="#dc3365"/>
      <stop offset=".89" stop-color="#bc3369"/>
      <stop offset="1" stop-color="#9d356c"/>
    </linearGradient>
    <linearGradient id="linear-gradient-2" x1="33.28" y1="136.23" x2="584.35" y2="136.23" xlink:href="#linear-gradient"/>
    <linearGradient id="linear-gradient-3" x1="0" y1="109.64" x2="617.63" y2="109.64" xlink:href="#linear-gradient"/>
    <linearGradient id="linear-gradient-4" x1="548.93" y1="29.33" x2="575.38" y2="55.78" gradientUnits="userSpaceOnUse">
      <stop offset="0" stop-color="#9d356c"/>
      <stop offset=".18" stop-color="#9d356c" stop-opacity=".73"/>
      <stop offset=".41" stop-color="#9d356c" stop-opacity=".42"/>
      <stop offset=".62" stop-color="#9d356c" stop-opacity=".19"/>
      <stop offset=".79" stop-color="#9d356c" stop-opacity=".05"/>
      <stop offset=".9" stop-color="#9d356c" stop-opacity="0"/>
    </linearGradient>
    <linearGradient id="linear-gradient-5" x1="512.08" y1="59.65" x2="583.41" y2="18.83" xlink:href="#linear-gradient"/>
  </defs>
  <g id="Layer_1-2" data-name="Layer 1">
    <g>
      <rect class="cls-7" x="79.28" y="84.85" width="459.07" height="153.7" rx="53.89" ry="53.89"/>
      <rect class="cls-8" x="33.28" y="59.38" width="551.06" height="153.7" rx="53.89" ry="53.89"/>
      <rect class="cls-5" y="32.79" width="617.63" height="153.7" rx="53.89" ry="53.89"/>
      <g>
        <path class="cls-2" d="M80.43,66.64h38.79c8.26,0,14.13,2.39,17.61,7.16,3.49,4.77,5.23,12.18,5.23,22.24s-1.74,17.61-5.23,22.36c-3.49,4.75-9.36,7.13-17.61,7.13h-16.77v17.25h-22.02v-76.14ZM114.17,107.8c2.18,0,3.75-.32,4.7-.96.95-.64,1.42-4.24,1.42-10.79s-.47-10.01-1.42-10.67c-.95-.66-2.51-.99-4.7-.99h-11.81v23.42h11.81Z"/>
        <path class="cls-2" d="M176.77,143.27c-9.93,0-17.81-2.33-23.66-6.99-5.85-4.66-8.77-12.13-8.77-22.41s2.92-17.59,8.77-22.12c5.85-4.53,13.73-6.79,23.66-6.79s17.81,2.26,23.64,6.79c5.83,4.53,8.75,11.9,8.75,22.12s-2.92,17.75-8.75,22.41c-5.83,4.66-13.71,6.99-23.64,6.99ZM176.77,128.66c3.15,0,5.72-.51,7.71-1.52,1.99-1.01,2.99-5.39,2.99-13.13s-1-12.05-2.99-13.01c-1.99-.96-4.56-1.45-7.71-1.45s-5.68.48-7.69,1.45c-2.01.96-3.01,5.3-3.01,13.01s1,12.12,3.01,13.13c2.01,1.01,4.57,1.52,7.69,1.52Z"/>
        <path class="cls-2" d="M243.22,143.27c-11.82,0-20.06-1.33-24.7-4-4.64-2.67-6.96-8.11-6.96-16.34h20.92c0,3.86,1.04,5.87,3.11,6.05,2.07.18,4.91.27,8.51.27,2.47,0,4.5-.03,6.07-.1,1.57-.06,2.36-1.35,2.36-3.86,0-1.96-1.34-3.04-4.02-3.25-2.68-.21-6.66-.49-11.93-.84-7.13-.42-13.12-1.9-17.95-4.46-4.84-2.55-7.25-7.2-7.25-13.95,0-6.26,2.39-10.76,7.18-13.49,4.79-2.73,12.29-4.1,22.5-4.1,12.3,0,20.78,1.38,25.42,4.14,4.64,2.76,6.96,8.13,6.96,16.1h-20.82c0-3.89-1.09-5.92-3.28-6.1-2.19-.18-5.16-.26-8.92-.26-2.76,0-4.79.07-6.07.22-1.29.14-1.93,1.44-1.93,3.88,0,1.99,1.57,3.07,4.7,3.23,3.13.16,7.28.43,12.46.82,6.87.45,12.57,1.8,17.08,4.05,4.51,2.25,6.77,6.44,6.77,12.58,0,7.29-2.13,12.35-6.38,15.18-4.26,2.83-12.2,4.24-23.83,4.24Z"/>
        <path class="cls-2" d="M304.85,142.78c-8.8,0-14.69-1.41-17.66-4.22-2.97-2.81-4.46-7.25-4.46-13.32v-23.76h-8.24v-15.85h2.07c2.76,0,4.93-.98,6.51-2.94,1.57-1.96,2.36-4.69,2.36-8.19v-7.85h21.88v7.85c0,1.58-.14,2.96-.43,4.17s-.77,2.22-1.45,3.04c-.67.82-1.55,1.44-2.63,1.85-1.08.42-2.4.63-3.98.63v1.45h23.9v15.85h-18.22v19.42c0,1.93.74,3.22,2.22,3.88,1.48.66,3.2.99,5.16.99,2.41,0,6.07-.02,10.99-.05v17.06h-18.02Z"/>
        <path class="cls-2" d="M346.87,142.78h-21.73v-76.14h34.99l6.26,30.02c.22.77.39,1.63.51,2.58.11.95.17,1.81.17,2.58v16.96h1.45v-16.96c0-.77.06-1.64.17-2.6.11-.96.26-1.81.46-2.55l6.02-30.02h34.65v76.14h-21.73v-24.63c0-.77.06-1.64.17-2.6s.28-1.81.51-2.55l3.47-28.62h-1.45l-10.55,58.41h-25.44l-10.6-58.41h-1.45l3.47,28.53c.22.77.39,1.63.51,2.58.11.95.17,1.81.17,2.58v24.72Z"/>
        <path class="cls-2" d="M459.49,133.53l-1.25-.48c-2.06,2.7-3.69,4.6-4.89,5.71-1.2,1.11-2.61,2-4.22,2.67-1.61.67-3.41,1.19-5.4,1.54-1.99.35-4.11.53-6.36.53-1.99,0-4.14-.17-6.46-.51-2.31-.34-4.51-.9-6.58-1.69s-3.94-1.89-5.59-3.3c-1.66-1.41-2.96-3.09-3.9-5.04-.95-1.94-1.42-4.47-1.42-7.59s.46-5.34,1.37-7.06c.92-1.72,2.16-3.28,3.74-4.7,1.57-1.41,3.51-2.55,5.81-3.4,2.3-.85,4.76-1.49,7.4-1.9,2.63-.42,5.17-.63,7.61-.63h15.61v-1.3c0-2.12-.43-3.8-1.3-5.04-.87-1.24-2.1-1.94-3.69-2.1-1.59-.16-3.4-.24-5.42-.24-1.9,0-3.54.03-4.92.1-1.38.07-2.63.65-3.73,1.76s-1.73,2.8-1.86,5.08h-20.48c.22-5.14,1.56-9.11,4-11.9,2.44-2.79,5.21-4.77,8.31-5.93,3.1-1.16,6.1-1.96,9.01-2.41,2.91-.45,6.38-.67,10.43-.67,7.61,0,13.4.72,17.35,2.14,3.95,1.43,7.29,3.77,10.02,7.01,2.73,3.25,4.1,7.76,4.1,13.54v35.03h-21.35v-1.69c0-.71.12-1.43.36-2.17.24-.74.59-1.38,1.04-1.93l2.65-3.47ZM442.53,129.58c1.06,0,2.22-.08,3.49-.24,1.27-.16,2.61-.42,4.02-.79,1.41-.37,2.53-.83,3.35-1.4.82-.56,1.31-1.24,1.47-2.05l.53-5.4h-13.35c-.96,0-1.85.06-2.65.17-.8.11-1.49.33-2.07.65-.58.32-1.02.82-1.33,1.49-.31.67-.46,1.59-.46,2.75s.21,2.07.63,2.75.96,1.17,1.64,1.47c.67.31,1.43.48,2.26.53.84.05,1.65.07,2.46.07Z"/>
        <path class="cls-2" d="M517.61,114.54c0-7.55-.59-11.85-1.76-12.92-1.17-1.06-3.03-1.59-5.57-1.59-2.79,0-5.19.9-7.18,2.7-1,.9-1.74,2.27-2.22,4.1v35.95h-21.78v-57.2h21.78v3.18c0,.26-.1.48-.29.67l-4.24,4.63,1.06.63.19-.19c.32-.39.66-.77,1.01-1.16,4.98-5.53,11.1-8.29,18.36-8.29,1,0,1.99.05,2.99.14,7.07.8,12.05,3.73,14.96,8.77,2.91,5.04,4.36,11.78,4.36,20.19v28.63h-21.69v-28.24Z"/>
      </g>
      <rect class="cls-2" x="238.22" y="157.34" width="146.73" height="17.6" rx="8.52" ry="8.52"/>
      <g>
        <path class="cls-6" d="M317.19,178.32c-6.65,0-12.06-5.41-12.06-12.06s5.41-12.06,12.06-12.06c1.87,0,3.72.44,5.39,1.27h5.28v.23l.21.06s.07-.05.11-.07c2.22-1.38,4.45-1.67,5.93-1.67.38,0,.7.02.92.04l2.38.2-.61,2.31c-.55,2.08-1.74,4.02-3.35,5.45-.08.07-.17.15-.25.22,0,.08.04.94.04.94l-.07.09c-.08.89-.33,1.75-.71,2.53.81,1.19,1.26,2.6,1.26,4.06,0,3.19-2.07,5.91-4.96,6.84v.35h-2s-4.16,0-4.16,0c-1.66.83-3.51,1.27-5.38,1.27Z"/>
        <path class="cls-2" d="M317.19,177.32c-6.1,0-11.06-4.96-11.06-11.06s4.96-11.06,11.06-11.06c1.71,0,3.42.4,4.94,1.16l.21.11h4.57l1.3.38.48-.31c2.02-1.26,4.05-1.52,5.4-1.52.35,0,.63.02.84.03l1.19.1-.31,1.16c-.5,1.9-1.59,3.66-3.05,4.95l-.63.53.04.51c0,.06.02.32.03.55l-.03.03-.03.28c-.07.77-.28,1.5-.61,2.18l-.26.52.33.48c.71,1.04,1.08,2.24,1.08,3.5,0,2.7-1.72,5.07-4.27,5.89l-.69.22v.08h-5.39s-.21.11-.21.11c-1.52.76-3.23,1.16-4.94,1.16Z"/>
        <g>
          <g>
            <path class="cls-1" d="M326.99,168.54c-.29-.27-.68-.44-1.11-.44h-1.69v3.22h1.7c.89,0,1.6-.72,1.6-1.61,0-.46-.19-.87-.5-1.17Z"/>
            <path class="cls-1" d="M326.33,163.5c.57-.4.71-1.2.3-1.77-.4-.57-1.2-.7-1.77-.3-.36.26-.73.52-1.09.77.49.69.98,1.38,1.47,2.07.36-.26.73-.52,1.09-.77Z"/>
            <path class="cls-1" d="M310.67,166.22c0,3.62,2.94,6.56,6.56,6.56,1.12,0,2.18-.28,3.1-.78v-4.36h-4.88c-.24,0-.42-.22-.37-.46l.54-2.48c.04-.17.19-.3.37-.3h4.34v-3.96c-.92-.5-1.98-.78-3.1-.78-3.62,0-6.56,2.93-6.56,6.56Z"/>
            <path class="cls-14" d="M326.13,160.62c.35-.61,1.04-1.65,2.22-2.6-.09-.05-.18-.09-.27-.13-.45.39-.97.91-1.46,1.59-.26.36-.47.7-.64,1.02-.86-.18-1.71-.36-2.57-.54-.23-.05-.27-.35-.06-.46,1.28-.64,2.56-1.27,3.85-1.91-.37-.09-.76-.13-1.16-.13-.06,0-.12,0-.18,0h0s-3.77,0-3.77,0c-1.45-.81-3.12-1.27-4.89-1.27-5.55,0-10.06,4.5-10.06,10.06s4.5,10.06,10.06,10.06c1.77,0,3.44-.46,4.89-1.27h4.65c2.76-.13,4.96-2.4,4.96-5.2,0-1.55-.68-2.94-1.75-3.89.77-.9,1.24-2.07,1.24-3.35,0-.02,0-.04,0-.07-1.04,1.01-2.08,2.03-3.11,3.04-.14.14-.38.02-.36-.18.11-.88.23-1.77.34-2.65.5-.08.89-.19,1.18-.28.63-.21,1.16-.48,1.59-.7.11-.06.21-.11.27-.14-.02-.1-.04-.21-.07-.31-1.44.93-2.81,1.23-3.45,1.34-.48-.69-.96-1.37-1.44-2.06ZM320.33,164.4h-4.34c-.18,0-.33.12-.37.3l-.54,2.48c-.05.23.13.46.37.46h4.88v4.36c-.92.5-1.98.78-3.1.78-3.62,0-6.56-2.94-6.56-6.56s2.94-6.56,6.56-6.56c1.12,0,2.18.28,3.1.78v3.96ZM324.86,161.42c.57-.4,1.37-.27,1.77.3.4.57.27,1.37-.3,1.77-.36.26-.73.52-1.09.77-.49-.69-.98-1.38-1.47-2.07.36-.26.73-.52,1.09-.77ZM325.88,171.32h-1.7v-3.22h1.69c.43,0,.82.17,1.11.44.31.29.5.71.5,1.17,0,.89-.72,1.61-1.6,1.61Z"/>
            <path class="cls-9" d="M329.23,162.48c-.28.09-.68.21-1.18.28-.11.88-.23,1.77-.34,2.65-.03.2.21.32.36.18,1.04-1.01,2.08-2.03,3.11-3.04,0,0,0,0,.01,0,0-.14-.02-.28-.03-.44,0,0,0-.02,0-.02,0,0,0-.02,0-.02,0-.04,0-.07-.01-.1,0-.07-.02-.14-.03-.21,0-.03-.01-.07-.02-.1,0,0,0,0,0,0-.06.03-.15.08-.27.14-.43.22-.96.49-1.59.7ZM330.9,162.56c-.98.83-1.95,1.67-2.93,2.5.09-.68.19-1.36.28-2.04.38-.12.79-.26,1.21-.43.52-.21.99-.43,1.41-.66l.03.63Z"/>
            <path class="cls-9" d="M323.4,159.97c.86.18,1.71.36,2.57.54.17-.32.38-.67.64-1.02.49-.68,1.01-1.2,1.46-1.59,0,0,0,0,0,0,0,0-.02,0-.02,0,0,0-.01,0-.02,0-.07-.03-.14-.06-.21-.08,0,0-.02,0-.03-.01-.05-.02-.1-.04-.15-.05-.02,0-.04-.01-.05-.02,0,0-.02,0-.03,0-.08-.02-.15-.04-.22-.06,0,0-.01,0-.02,0-.04-.01-.08-.02-.12-.03,0,0,0,0,0,0-1.28.64-2.56,1.27-3.85,1.91-.21.1-.17.41.06.46ZM327.22,157.89c.11.03.22.07.33.1-.3.21-.68.51-1.06.93-.35.39-.59.78-.76,1.08-.62-.13-1.24-.27-1.87-.4,1.12-.57,2.24-1.14,3.36-1.72Z"/>
            <path class="cls-11" d="M329.22,157.39c-.32.2-.61.41-.88.62-1.18.95-1.86,1.99-2.22,2.6.48.69.96,1.37,1.44,2.06.64-.11,2.01-.41,3.45-1.34.36-.23.72-.5,1.08-.82,1.9-1.68,2.54-3.68,2.75-4.46-.84-.07-3.23-.15-5.63,1.34ZM330.3,157.67c-1.7.88-2.96,1.9-3.82,2.71.44-.69,1.19-1.65,2.35-2.49,2.25-1.61,4.61-1.72,5.55-1.72-1.09.25-2.53.68-4.08,1.49ZM332.53,158.42c-.41,0-.75-.34-.75-.75s.34-.75.75-.75.75.34.75.75-.34.75-.75.75Z"/>
            <path class="cls-16" d="M326.49,158.93c.38-.42.76-.73,1.06-.93-.11-.03-.22-.07-.33-.1-1.12.57-2.24,1.14-3.36,1.72.62.13,1.24.27,1.87.4.17-.31.41-.69.76-1.08Z"/>
            <path class="cls-16" d="M328.25,163.01c-.09.68-.19,1.36-.28,2.04.98-.83,1.95-1.67,2.93-2.5l-.03-.63c-.42.22-.89.45-1.41.66-.42.17-.83.31-1.21.43Z"/>
            <path class="cls-13" d="M328.83,157.89c-1.16.83-1.91,1.79-2.35,2.49.86-.81,2.12-1.83,3.82-2.71,1.55-.81,2.98-1.24,4.08-1.49-.94,0-3.3.1-5.55,1.72Z"/>
          </g>
          <circle class="cls-12" cx="332.53" cy="157.67" r=".75"/>
        </g>
      </g>
      <g>
        <path class="cls-15" d="M288.72,169.71h-2.21v-7.74s2.21,0,2.21,0v2.19s0,.05-.02.06l-.48.42.12.06.02-.02c.12-.12.26-.24.44-.36.48-.31,1.04-.47,1.7-.47.06,0,.12,0,.19,0,.86.05,1.45.32,1.77.81.33.5.49,1.2.49,2.12s-.16,1.63-.49,2.14c-.33.51-.92.78-1.77.82h-.14c-.68,0-1.26-.16-1.74-.47-.18-.11-.33-.23-.45-.36h0s-.11.05-.11.05l.47.39s.03.04.03.07v.27ZM289.03,168.09c.21.11.46.16.74.16.38,0,.63-.05.75-.16.12-.1.18-.54.18-1.29s-.06-1.18-.18-1.28c-.12-.1-.37-.16-.75-.16-.28,0-.53.05-.74.16-.19.09-.29.36-.31.81v.95c.02.44.12.71.31.81Z"/>
        <path class="cls-15" d="M295.64,168.14h.15l.9-4.25h2.31l-1.58,5.81c-.36,1.23-.76,1.89-1.21,2-.45.1-1.51.15-3.19.15v-1.85c1.28,0,1.98-.02,2.09-.05.11-.03.2-.12.26-.25h-.98l-1.61-5.81h2.31l.68,3.22c.02.08.02.15,0,.21l-.14.81Z"/>
      </g>
      <g>
        <g>
          <circle class="cls-2" cx="548.66" cy="34.63" r="34.63" transform="translate(306.7 528.27) rotate(-67.5)"/>
          <path class="cls-4" d="M583.24,34.68c0-2.19-.21-4.33-.59-6.4l-16.54-13.82-26.35,27.03-2.51,10.94,18.71,16.1c15.6-3.37,27.28-17.24,27.28-33.85Z"/>
        </g>
        <g>
          <path class="cls-3" d="M565.18,14.24c-8.16,3.23-34.49,14.02-44.45,18.1-1.31.54-1.24,2.43.12,2.86l3.53,1.13c4.93,1.57,8.8,5.41,10.41,10.33l1.61,4.92c.17.51.59.84,1.06.93.05,0,.1-.15.15-.42.8-4.26,5.7-6.27,9.18-3.69,3.29,2.43,6.84,5.06,9.25,6.85,1.4,1.03,3.39.26,3.72-1.45,1.69-8.71,5.92-30.49,7.36-37.94.22-1.12-.89-2.04-1.95-1.62Z"/>
          <path class="cls-10" d="M537.46,52.51c.21.04.48-3.09.67-5.91s1.48-5.55,3.57-7.51l16.35-15.36c.13-.12-.03-.34-.18-.24l-20.22,12.1c-3.17,1.9-4.61,5.74-3.46,9.26l2.2,6.74c.17.51.59.84,1.06.93Z"/>
        </g>
      </g>
    </g>
  </g>
</svg>